<svg width="44" height="44" viewBox="0 0 44 44" fill="none" xmlns="http://www.w3.org/2000/svg">
<path d="M43.56 21.78C43.56 22.2614 43.3688 22.723 43.0284 23.0634C42.688 23.4038 42.2264 23.595 41.745 23.595H23.595V41.745C23.595 42.2264 23.4038 42.688 23.0634 43.0284C22.723 43.3688 22.2614 43.56 21.78 43.56C21.2986 43.56 20.837 43.3688 20.4966 43.0284C20.1562 42.688 19.965 42.2264 19.965 41.745V23.595H1.815C1.33363 23.595 0.87198 23.4038 0.531602 23.0634C0.191223 22.723 0 22.2614 0 21.78C0 21.2986 0.191223 20.837 0.531602 20.4966C0.87198 20.1562 1.33363 19.965 1.815 19.965H19.965V1.815C19.965 1.33363 20.1562 0.87198 20.4966 0.531602C20.837 0.191223 21.2986 0 21.78 0C22.2614 0 22.723 0.191223 23.0634 0.531602C23.4038 0.87198 23.595 1.33363 23.595 1.815V19.965H41.745C42.2264 19.965 42.688 20.1562 43.0284 20.4966C43.3688 20.837 43.56 21.2986 43.56 21.78Z" fill="#F3F2F1"/>
</svg>
