<svg width="30" height="24" viewBox="0 0 30 24" fill="none" xmlns="http://www.w3.org/2000/svg">
<path d="M15.0001 16.675C17.7605 16.675 19.9982 14.4372 19.9982 11.6768C19.9982 8.91645 17.7605 6.67871 15.0001 6.67871C12.2397 6.67871 10.002 8.91645 10.002 11.6768C10.002 14.4372 12.2397 16.675 15.0001 16.675Z" fill="black"/>
<path d="M29.0835 8.45188C27.1455 5.29555 22.7371 0 15 0C7.26284 0 2.85448 5.29555 0.916447 8.45188C-0.305482 10.4283 -0.305482 12.9256 0.916447 14.902C2.85448 18.0583 7.26284 23.3539 15 23.3539C22.7371 23.3539 27.1455 18.0583 29.0835 14.902C30.3054 12.9256 30.3054 10.4283 29.0835 8.45188ZM15 19.1741C10.8594 19.1741 7.50275 15.8175 7.50275 11.6769C7.50275 7.53634 10.8594 4.1797 15 4.1797C19.1405 4.1797 22.4972 7.53634 22.4972 11.6769C22.493 15.8158 19.1388 19.17 15 19.1741Z" fill="black"/>
</svg>
