<svg width="45" height="45" viewBox="0 0 45 45" fill="none" xmlns="http://www.w3.org/2000/svg">
<path d="M28.125 11.25C28.125 17.4544 23.0794 22.5 16.875 22.5C10.6706 22.5 5.625 17.4544 5.625 11.25C5.625 5.04562 10.6706 0 16.875 0C23.0794 0 28.125 5.04562 28.125 11.25ZM31.875 41.25H30C28.965 41.25 28.125 40.4081 28.125 39.375V28.125C28.125 27.0919 28.965 26.25 30 26.25H31.875C32.9119 26.25 33.75 25.41 33.75 24.375C33.75 23.34 32.9119 22.5 31.875 22.5H30C26.8988 22.5 24.375 25.0238 24.375 28.125V39.375C24.375 42.4762 26.8988 45 30 45H31.875C32.9119 45 33.75 44.16 33.75 43.125C33.75 42.09 32.9119 41.25 31.875 41.25ZM43.8825 31.4156L39.7444 27.7669C38.9738 27.0863 37.7831 27.1556 37.0987 27.9338C36.4144 28.71 36.4894 29.895 37.2656 30.5794L38.7338 31.875H33.75C32.7131 31.875 31.875 32.715 31.875 33.75C31.875 34.785 32.7131 35.625 33.75 35.625H38.985L37.2656 37.1419C36.4894 37.8262 36.4144 39.0112 37.0987 39.7875C37.785 40.5675 38.9719 40.6369 39.7444 39.9544L43.8675 36.3188C44.5875 35.6981 45 34.8019 45 33.8606C45 32.9194 44.5875 32.0231 43.8825 31.4156ZM20.625 28.125C20.625 27.645 20.6963 27.1819 20.7675 26.7206C19.515 26.4244 18.2175 26.25 16.875 26.25C7.56938 26.25 0 33.8213 0 43.125C0 44.16 0.838125 45 1.875 45H22.5487C21.3581 43.4287 20.625 41.4938 20.625 39.375V28.125Z" fill="#E08383"/>
</svg>
