<svg width="350" height="350" viewBox="0 0 350 350" fill="none" xmlns="http://www.w3.org/2000/svg">
<path d="M233.333 339.996C215.075 346.471 195.446 350 175 350C154.554 350 134.925 346.471 116.667 339.996V306.25C116.667 274.079 142.829 247.917 175 247.917C207.171 247.917 233.333 274.079 233.333 306.25V339.996ZM175 102.083C158.915 102.083 145.833 115.165 145.833 131.25C145.833 147.335 158.915 160.417 175 160.417C191.085 160.417 204.167 147.335 204.167 131.25C204.167 115.165 191.085 102.083 175 102.083ZM350 175C350 239.648 314.767 296.202 262.5 326.506V306.25C262.5 257.994 223.256 218.75 175 218.75C126.744 218.75 87.5 257.994 87.5 306.25V326.506C35.2333 296.202 0 239.648 0 175C0 78.5021 78.5021 0 175 0C271.498 0 350 78.5021 350 175ZM233.333 131.25C233.333 99.0792 207.171 72.9167 175 72.9167C142.829 72.9167 116.667 99.0792 116.667 131.25C116.667 163.421 142.829 189.583 175 189.583C207.171 189.583 233.333 163.421 233.333 131.25Z" fill="#F3F2F1"/>
</svg>
